<svg width="45" height="45" viewBox="0 0 45 45" fill="none" xmlns="http://www.w3.org/2000/svg">
<path d="M42.1239 16.4732L32.4557 22.4918C32.1318 22.8019 31.1562 23.2361 29.8445 22.4918L29.8079 22.471C28.1753 21.5447 26.1979 20.4228 25.776 17.4677C25.4359 15.0859 31.1918 8.62821 33.56 6.51934M33.56 6.51934L33.9079 6.12224M33.56 6.51934L41.7473 16.656M42.3595 16.299L33.9079 6.12224M42.3595 16.299C42.5076 16.1706 42.6335 16.0215 42.7379 15.8542M42.3595 16.299C42.1785 16.4557 41.973 16.5742 41.7473 16.656M33.9079 6.12224C34.0413 6.00668 34.188 5.91196 34.3463 5.83736M33.9079 6.12224C33.5786 6.40758 33.3587 6.79569 33.2421 7.25785M15.0883 12.2575L8.82177 5.91874C8.75139 5.84755 8.65726 5.8057 8.55821 5.8073C6.84835 5.83495 3.54834 6.98302 2.73348 11.4469C2.71171 11.5662 2.74702 11.6907 2.82689 11.7805L8.71218 18.3991M15.6366 13.6016C15.5677 14.6346 14.823 16.0067 13.5965 17.1835C11.8222 18.8857 9.71147 19.5344 8.88198 18.6324C8.0525 17.7304 8.81841 15.6192 10.5927 13.917C12.2493 12.3276 14.1993 11.6567 15.1258 12.3089M12.4152 15.8542C13.8726 15.9369 16.5566 16.9707 15.6336 20.4441C15.2274 21.9728 14.377 24.0783 13.2441 26.1187M13.2441 26.1187C11.1594 29.8735 8.11828 33.4084 5.12818 32.7252C0.384016 31.6413 1.60203 27.513 3.91368 25.8404C6.40076 24.0408 8.93249 24.5447 13.2441 26.1187ZM13.2441 26.1187C13.9851 26.3892 14.7786 26.6914 15.6336 27.0188C16.2064 27.2382 16.7245 27.3819 17.1928 27.4617M17.1928 27.4617C20.5371 28.0319 21.3343 25.3456 21.281 23.7315C21.236 22.3669 19.52 21.8707 18.4269 24.1036C18.015 24.9451 17.6328 26.1377 17.1928 27.4617ZM17.1928 27.4617C16.7412 28.8208 16.2287 30.3184 15.5607 31.7172M15.5607 31.7172C14.4638 34.0141 12.9477 36.0444 10.5934 36.7569C7.31425 37.7493 8.22513 34.5239 12.9009 32.7252C13.6303 32.4446 14.5408 32.0873 15.5607 31.7172ZM15.5607 31.7172C17.4676 31.0251 19.7574 30.2882 21.9628 29.9234M21.9628 29.9234C25.2556 29.3787 28.3603 29.6638 29.7218 32.167C33.0954 38.3695 26.7847 40.4503 24.2565 38.8657C22.6338 37.8486 20.9427 34.5597 21.9628 29.9234ZM21.9628 29.9234C22.532 27.3364 23.9452 24.3298 26.6855 21.0644M34.3463 5.83736L42.7379 15.8542M34.3463 5.83736C34.5258 5.75274 34.7203 5.69399 34.927 5.66008M42.7379 15.8542C42.8472 15.6791 42.9328 15.4842 42.9954 15.2723M42.9954 15.2723L34.927 5.66008M42.9954 15.2723C43.072 15.0132 43.1142 14.7289 43.1232 14.4248M34.927 5.66008C35.1976 5.61571 35.4891 5.61384 35.796 5.65213M35.796 5.65213L43.1232 14.4248M35.796 5.65213C36.1248 5.69317 36.4712 5.78034 36.828 5.91073M43.1232 14.4248C43.1347 14.0336 43.0913 13.6096 42.9954 13.1645M42.9954 13.1645L36.828 5.91073M42.9954 13.1645C42.8568 12.521 42.6086 11.8334 42.2581 11.1368M36.828 5.91073C37.3201 6.09061 37.832 6.35275 38.3449 6.68955M38.3449 6.68955C39.1843 7.24083 40.0264 7.99214 40.7888 8.91012C41.3897 9.63377 41.8826 10.3904 42.2581 11.1368M38.3449 6.68955L42.2581 11.1368M41.7473 16.656C41.5362 16.7326 41.3074 16.7772 41.0647 16.7913M41.0647 16.7913L33.2421 7.25785M41.0647 16.7913C40.7345 16.8105 40.3784 16.7731 40.0055 16.683M33.2421 7.25785C33.1615 7.57745 33.1303 7.93247 33.1465 8.31339M33.1465 8.31339L40.0055 16.683M33.1465 8.31339C33.159 8.60724 33.1997 8.91651 33.2676 9.23685M40.0055 16.683C39.7144 16.6127 39.413 16.5102 39.1058 16.3773M38.3449 15.9923C37.3681 15.4281 36.369 14.5832 35.4786 13.5111C34.7466 12.6296 34.175 11.6992 33.7804 10.798M38.3449 15.9923L33.7804 10.798M38.3449 15.9923C38.6008 16.1402 38.8553 16.2689 39.1058 16.3773M33.7804 10.798C33.5456 10.2618 33.3735 9.73589 33.2676 9.23685M33.2676 9.23685L39.1058 16.3773M7.25381 11.7805C7.3197 11.6037 7.5 10.3125 8.88198 10.3125M29.0625 16.875C29.3564 17.4436 30.3441 18.644 31.3613 19.1775M31.3613 13.5111C31.5762 14.6411 32.785 16.9645 35.1521 17.4677M12.8102 15.9547C12.4088 16.3575 11.9379 16.5327 11.7584 16.346C11.5788 16.1593 11.7586 15.6815 12.16 15.2787C12.5614 14.8759 13.0323 14.7008 13.2119 14.8874C13.3914 15.0741 13.2116 15.5519 12.8102 15.9547Z" stroke="#EA4F43" stroke-linecap="round"/>
</svg>
