<svg width="130" height="36" viewBox="0 0 130 36" fill="none" xmlns="http://www.w3.org/2000/svg">
<path d="M124.176 30.8766C122.511 30.8766 121.15 30.4763 120.093 29.6757C119.036 28.8751 118.508 27.5941 118.508 25.8328V22.6143H119.277V25.8328C119.277 27.2418 119.725 28.3147 120.622 29.0512C121.55 29.7558 122.735 30.108 124.176 30.108C125.682 30.108 126.882 29.7878 127.779 29.1473C128.708 28.5068 129.172 27.45 129.172 25.9769V24.1515C129.172 22.9345 128.916 21.9898 128.404 21.3173C127.891 20.6127 127.235 20.0523 126.434 19.636C125.666 19.1877 124.833 18.7713 123.936 18.387C122.943 17.9387 122.031 17.4903 121.198 17.042C120.365 16.5937 119.693 16.0492 119.181 15.4087C118.7 14.7362 118.46 13.8716 118.46 12.8148V11.1815C118.46 9.83646 118.972 8.7156 119.997 7.81891C121.022 6.92222 122.447 6.47388 124.272 6.47388C125.938 6.47388 127.299 6.85817 128.356 7.62676C129.444 8.36333 129.989 9.59628 129.989 11.3256V14.448H129.22V11.6138C129.22 10.0766 128.788 8.9718 127.923 8.29928C127.091 7.59474 125.874 7.24247 124.272 7.24247C122.671 7.24247 121.422 7.64278 120.526 8.44339C119.661 9.24401 119.229 10.3008 119.229 11.6138V12.4785C119.229 13.5353 119.501 14.384 120.045 15.0245C120.59 15.6649 121.246 16.1933 122.015 16.6097C122.783 16.994 123.504 17.3462 124.176 17.6665C125.137 18.0828 126.05 18.5472 126.914 19.0596C127.811 19.5399 128.532 20.1804 129.076 20.981C129.653 21.7496 129.941 22.8064 129.941 24.1515V25.9769C129.941 27.2258 129.669 28.2026 129.124 28.9071C128.58 29.6117 127.875 30.1241 127.011 30.4443C126.146 30.7325 125.201 30.8766 124.176 30.8766Z" fill="black"/>
<path d="M108.085 30.5885V0.325195H108.854V16.3695H110.679L117.261 6.81018H118.173L111.304 16.8019L118.461 30.5885H117.645L110.631 17.1381H108.854V30.5885H108.085Z" fill="black"/>
<path d="M103.169 30.5885V0.325195H103.938V30.5885H103.169Z" fill="black"/>
<path d="M93.0084 30.7806C92.2719 30.7806 91.5033 30.6525 90.7027 30.3963C89.9341 30.1401 89.2776 29.6277 88.7331 28.8591C88.1887 28.0585 87.9165 26.8415 87.9165 25.2083V23.575C87.9165 22.5502 88.1407 21.6535 88.589 20.885C89.0694 20.1164 89.6298 19.4759 90.2703 18.9635C90.9428 18.4191 91.5833 17.9867 92.1918 17.6665C92.8323 17.3142 93.2966 17.058 93.5849 16.8979C94.8658 16.1933 95.8586 15.5849 96.5632 15.0725C97.2997 14.5281 97.8281 13.9837 98.1484 13.4392C98.4686 12.8628 98.6287 12.1743 98.6287 11.3736V10.7011C98.6287 9.61229 98.3886 8.82769 97.9082 8.34732C97.4598 7.86695 96.8834 7.56271 96.1789 7.43462C95.4743 7.30652 94.7538 7.24247 94.0172 7.24247C92.6081 7.24247 91.5513 7.48265 90.8468 7.96302C90.1742 8.44339 89.7259 9.08388 89.5017 9.8845C89.3096 10.6851 89.2135 11.5818 89.2135 12.5746V14.5441H88.4449V12.4785C88.4449 10.6211 88.8132 9.16394 89.5498 8.10713C90.2863 7.01829 91.7755 6.47388 94.0172 6.47388C95.7465 6.47388 96.9795 6.69805 97.716 7.14639C98.4846 7.59474 98.949 8.18719 99.1091 8.92376C99.3013 9.6283 99.3973 10.4129 99.3973 11.2776V30.5884H98.6768V27.0817C98.2925 28.2026 97.604 29.0993 96.6112 29.7718C95.6505 30.4443 94.4495 30.7806 93.0084 30.7806ZM93.1525 30.012C94.5616 30.012 95.6504 29.7077 96.419 29.0993C97.2197 28.4908 97.7801 27.6582 98.1003 26.6014C98.4526 25.5445 98.6287 24.3596 98.6287 23.0466V14.2078C98.1163 14.9124 97.4118 15.5368 96.5151 16.0813C95.6505 16.5937 94.7538 17.1221 93.825 17.6665C93.0244 18.1148 92.2238 18.5952 91.4232 19.1076C90.6546 19.588 89.9981 20.2124 89.4537 20.981C88.9413 21.7496 88.6851 22.7424 88.6851 23.9593V25.2083C88.6851 26.7134 88.9253 27.8023 89.4057 28.4748C89.886 29.1473 90.4785 29.5796 91.183 29.7718C91.8876 29.9319 92.5441 30.012 93.1525 30.012Z" fill="black"/>
<path d="M84.5523 30.5885C83.3034 30.5885 82.4067 30.2202 81.8622 29.4836C81.3178 28.7151 81.0456 27.5942 81.0456 26.1211V7.57881H79.2202V6.90629L81.0456 6.81021L81.1897 2.15063H81.8142V6.81021H87.3865V7.57881H81.8142V26.3612C81.8142 27.2579 81.9903 28.0746 82.3426 28.8111C82.6949 29.5157 83.4154 29.8679 84.5043 29.8679C84.9526 29.8679 85.401 29.8519 85.8493 29.8199C86.2977 29.7559 86.81 29.6918 87.3865 29.6278V30.3964C87.1623 30.4284 86.778 30.4764 86.2336 30.5405C85.7212 30.5725 85.1608 30.5885 84.5523 30.5885Z" fill="black"/>
<path d="M76.1294 30.5885V0.325195H76.898V30.5885H76.1294Z" fill="black"/>
<path d="M71.2134 30.5885V0.325195H71.982V30.5885H71.2134Z" fill="black"/>
<path d="M14.376 30.5885V6.8102H15.0485L15.1446 9.21205C15.4968 8.47548 16.0733 7.83499 16.8739 7.29057C17.7065 6.71412 18.8754 6.4259 20.3806 6.4259C22.27 6.4259 23.5991 6.77817 24.3677 7.48272C25.1362 8.15523 25.6326 8.97186 25.8568 9.9326C26.2091 8.84376 26.8496 7.99511 27.7783 7.38664C28.707 6.74615 29.9079 6.4259 31.3811 6.4259C32.7261 6.4259 33.7829 6.61805 34.5515 7.00235C35.3521 7.35462 35.9285 7.851 36.2808 8.49149C36.6331 9.09996 36.8573 9.77248 36.9533 10.509C37.0494 11.2456 37.0974 11.9822 37.0974 12.7187V30.5885H36.3289V13.1511C36.3289 12.1903 36.2488 11.2616 36.0887 10.3649C35.9285 9.43622 35.4962 8.68364 34.7917 8.1072C34.1192 7.49873 32.9823 7.19449 31.3811 7.19449C29.6197 7.19449 28.3227 7.70689 27.4901 8.73168C26.6894 9.75647 26.2251 11.0855 26.097 12.7187V30.5885H25.3284V13.1511C25.3284 12.1903 25.2483 11.2616 25.0882 10.3649C24.9281 9.43622 24.4958 8.68364 23.7912 8.1072C23.1187 7.49873 21.9818 7.19449 20.3806 7.19449C18.6192 7.19449 17.3383 7.64284 16.5376 8.53953C15.737 9.40419 15.2727 10.5251 15.1446 11.9021V30.5885H14.376Z" fill="black"/>
<path d="M5.7164 30.8766C4.05112 30.8766 2.69007 30.4763 1.63326 29.6757C0.576443 28.8751 0.048037 27.5941 0.048037 25.8328V22.6143H0.816628V25.8328C0.816628 27.2418 1.26497 28.3147 2.16166 29.0512C3.09038 29.7558 4.27529 30.108 5.7164 30.108C7.22155 30.108 8.42247 29.7878 9.31916 29.1473C10.2479 28.5068 10.7122 27.45 10.7122 25.9769V24.1515C10.7122 22.9345 10.456 21.9898 9.94365 21.3173C9.43125 20.6127 8.77475 20.0523 7.97413 19.636C7.20554 19.1877 6.3729 18.7713 5.47621 18.387C4.48345 17.9387 3.57075 17.4903 2.73811 17.042C1.90547 16.5937 1.23295 16.0492 0.720554 15.4087C0.240185 14.7362 0 13.8716 0 12.8148V11.1815C0 9.83646 0.512394 8.7156 1.53718 7.81891C2.56197 6.92222 3.98707 6.47388 5.81247 6.47388C7.47775 6.47388 8.8388 6.85817 9.89561 7.62676C10.9844 8.36333 11.5289 9.59628 11.5289 11.3256V14.448H10.7603V11.6138C10.7603 10.0766 10.3279 8.9718 9.46327 8.29928C8.63064 7.59474 7.4137 7.24247 5.81247 7.24247C4.21124 7.24247 2.96228 7.64278 2.06559 8.44339C1.20092 9.24401 0.768591 10.3008 0.768591 11.6138V12.4785C0.768591 13.5353 1.0408 14.384 1.58522 15.0245C2.12964 15.6649 2.78614 16.1933 3.55473 16.6097C4.32332 16.994 5.04388 17.3462 5.7164 17.6665C6.67713 18.0828 7.58983 18.5472 8.4545 19.0596C9.35119 19.5399 10.0717 20.1804 10.6162 20.981C11.1926 21.7496 11.4808 22.8064 11.4808 24.1515V25.9769C11.4808 27.2258 11.2086 28.2026 10.6642 28.9071C10.1198 29.6117 9.41524 30.1241 8.55057 30.4443C7.68591 30.7325 6.74118 30.8766 5.7164 30.8766Z" fill="black"/>
<path d="M68.7668 14.1792L61.4817 18.7144C61.2376 18.948 60.5025 19.2752 59.5141 18.7144L59.4865 18.6987C58.2563 18.0007 56.7663 17.1553 56.4483 14.9286C56.1921 13.1339 60.5293 8.26786 62.3138 6.67879M62.3138 6.67879L62.5759 6.37956M62.3138 6.67879L68.4831 14.317M68.9443 14.0479L62.5759 6.37956M68.9443 14.0479C69.056 13.9512 69.1509 13.8389 69.2295 13.7128M68.9443 14.0479C68.808 14.1661 68.6531 14.2553 68.4831 14.317M62.5759 6.37956C62.6764 6.29249 62.787 6.22112 62.9062 6.1649M62.5759 6.37956C62.3278 6.59457 62.1621 6.88702 62.0742 7.23527M48.395 11.0026L43.673 6.22622C43.62 6.17258 43.549 6.14105 43.4744 6.14225C42.186 6.16308 39.6994 7.02818 39.0854 10.3918C39.069 10.4817 39.0956 10.5755 39.1557 10.6432L43.5904 15.6304M48.8081 12.0154C48.7562 12.7938 48.1951 13.8277 47.2709 14.7144C45.9339 15.9971 44.3434 16.4859 43.7184 15.8062C43.0934 15.1266 43.6705 13.5357 45.0074 12.2531C46.2557 11.0554 47.7251 10.5499 48.4232 11.0413M46.3807 13.7128C47.4789 13.7751 49.5014 14.5541 48.8059 17.1714C48.4997 18.3233 47.859 19.9098 47.0053 21.4473M47.0053 21.4473C45.4345 24.2766 43.1429 26.9402 40.8898 26.4254C37.315 25.6087 38.2328 22.4979 39.9747 21.2376C41.8487 19.8815 43.7564 20.2612 47.0053 21.4473ZM47.0053 21.4473C47.5637 21.6512 48.1616 21.8788 48.8059 22.1256C49.2375 22.2909 49.6279 22.3992 49.9807 22.4593M49.9807 22.4593C52.5008 22.889 53.1014 20.8647 53.0613 19.6485C53.0274 18.6203 51.7343 18.2464 50.9107 19.9289C50.6003 20.563 50.3123 21.4616 49.9807 22.4593ZM49.9807 22.4593C49.6404 23.4834 49.2543 24.6119 48.7509 25.6659M48.7509 25.6659C47.9244 27.3966 46.782 28.9265 45.008 29.4634C42.5371 30.2112 43.2234 27.7808 46.7468 26.4254C47.2964 26.214 47.9824 25.9448 48.7509 25.6659ZM48.7509 25.6659C50.1878 25.1444 51.9132 24.5891 53.575 24.3142M53.575 24.3142C56.0562 23.9038 58.3957 24.1186 59.4216 26.0048C61.9637 30.6786 57.2084 32.2465 55.3034 31.0525C54.0807 30.2861 52.8064 27.8078 53.575 24.3142ZM53.575 24.3142C54.0039 22.3648 55.0689 20.0994 57.1337 17.6388M62.9062 6.1649L69.2295 13.7128M62.9062 6.1649C63.0415 6.10113 63.1881 6.05687 63.3439 6.03132M69.2295 13.7128C69.3119 13.5809 69.3764 13.434 69.4236 13.2743M69.4236 13.2743L63.3439 6.03132M69.4236 13.2743C69.4813 13.0791 69.5131 12.8649 69.5198 12.6357M63.3439 6.03132C63.5477 5.99788 63.7674 5.99648 63.9986 6.02533M63.9986 6.02533L69.5198 12.6357M63.9986 6.02533C64.2464 6.05625 64.5074 6.12193 64.7763 6.22019M69.5198 12.6357C69.5285 12.3409 69.4958 12.0214 69.4236 11.686M69.4236 11.686L64.7763 6.22019M69.4236 11.686C69.3191 11.2011 69.1321 10.683 68.868 10.1581M64.7763 6.22019C65.1471 6.35573 65.5328 6.55326 65.9193 6.80704M65.9193 6.80704C66.5518 7.22244 67.1863 7.78857 67.7608 8.48029C68.2136 9.02557 68.585 9.59573 68.868 10.1581M65.9193 6.80704L68.868 10.1581M68.4831 14.317C68.324 14.3747 68.1516 14.4083 67.9687 14.4189M67.9687 14.4189L62.0742 7.23527M67.9687 14.4189C67.7199 14.4334 67.4516 14.4052 67.1706 14.3373M62.0742 7.23527C62.0135 7.4761 61.99 7.74361 62.0022 8.03064M62.0022 8.03064L67.1706 14.3373M62.0022 8.03064C62.0116 8.25206 62.0423 8.48511 62.0935 8.72648M67.1706 14.3373C66.9512 14.2843 66.7241 14.2071 66.4926 14.1069M65.9193 13.8169C65.1833 13.3917 64.4304 12.7551 63.7595 11.9472C63.2079 11.283 62.7772 10.5819 62.4799 9.90287M65.9193 13.8169L62.4799 9.90287M65.9193 13.8169C66.1121 13.9283 66.3039 14.0252 66.4926 14.1069M62.4799 9.90287C62.3029 9.4988 62.1733 9.10252 62.0935 8.72648M62.0935 8.72648L66.4926 14.1069M42.4915 10.6432C42.5412 10.5099 42.677 9.53701 43.7184 9.53701M58.9248 14.482C59.1463 14.9104 59.8905 15.8149 60.657 16.217M60.657 11.9472C60.8189 12.7987 61.7298 14.5494 63.5135 14.9286M46.6784 13.7885C46.3759 14.092 46.0211 14.224 45.8858 14.0834C45.7505 13.9427 45.886 13.5826 46.1884 13.2792C46.4909 12.9757 46.8457 12.8437 46.981 12.9843C47.1163 13.125 46.9808 13.485 46.6784 13.7885Z" stroke="black" stroke-linecap="round"/>
</svg>
