<svg width="24" height="25" viewBox="0 0 24 25" fill="none" xmlns="http://www.w3.org/2000/svg">
<path d="M4.05108 9.96692C3.71989 13.3502 4.84596 20.1168 11.9998 20.1168M11.9998 20.1168C19.1537 20.1168 20.28 13.3502 19.949 9.96692M11.9998 20.1168V23.2996M11.9998 23.2996C10.3367 23.3328 8.62784 23.4237 7.52901 23.5C5.78682 23.6211 18.5 23.9999 16.4714 23.5C15.6351 23.2966 13.8457 23.2627 11.9998 23.2996ZM12.5 3.99988C12.8333 4.2335 13.6 4.98066 14 6.10031M7.52867 13.2561V6.10031C7.5 2.99914 10.9841 -0.358354 14.4838 2.71703C16.4714 4.46355 16.4714 14.2259 14.4838 16.25C13.0369 17.7235 8.57971 18.1749 7.54899 13.4462C7.53542 13.3839 7.52867 13.3197 7.52867 13.2561Z" stroke="white" stroke-linecap="round"/>
</svg>
