<svg width="25" height="25" viewBox="0 0 25 25" fill="none" xmlns="http://www.w3.org/2000/svg">
<path d="M11.319 9.90148C11.521 9.87414 16.4096 9.2794 16.206 5.13217C16.1873 4.75113 16.1352 4.40451 16.0542 4.09029M11.319 9.90148C13.9985 9.74001 15.3601 8.78275 15.9695 7.6355M11.319 9.90148C10.9948 9.94538 10.6605 9.94188 10.3297 9.89412M16.0542 4.09029C15.9528 3.6969 15.8061 3.3543 15.623 3.05856M16.0542 4.09029C16.4192 5.01244 16.6103 6.42903 15.9695 7.6355M15.623 3.05856C14.1221 0.633973 10.175 1.35831 8.67191 3.05856C8.08213 3.72629 6.84605 5.41967 7.44842 7.5364C7.82602 8.86328 9.05107 9.70948 10.3297 9.89412M15.623 3.05856C16.1941 3.79024 17.0227 5.50372 16.3143 7.05765M15.9695 7.6355C16.1113 7.44695 16.225 7.25356 16.3143 7.05765M10.3297 9.89412C12.0206 10.1624 15.5847 9.97062 16.3143 7.05765M20.1973 15.4725L20.5609 16.1356C21.0004 16.9372 21.2001 17.8672 20.7982 18.6851M20.1973 15.4725C19.4096 14.0357 17.7994 13.1281 16.0381 13.1281H7.83558C6.07424 13.1281 4.46407 14.0357 3.67637 15.4725L3.49797 15.7979C2.94643 16.8039 2.8115 17.9917 3.39151 18.9843C5.16179 22.0139 8.22262 23.3099 11.319 23.3876M20.1973 15.4725C21.0057 17.6121 20.3617 22.1905 11.319 23.3876M20.7982 18.6851C19.3913 21.5487 15.3254 23.4881 11.319 23.3876M20.7982 18.6851C20.4063 20.5831 17.9617 24.1807 11.319 23.3876" stroke="black" stroke-linecap="round"/>
</svg>
